<?xml version="1.0" encoding="utf-8"?>
<!-- Generator: Adobe Illustrator 25.0.1, SVG Export Plug-In . SVG Version: 6.00 Build 0)  -->
<svg version="1.1" id="Layer_1" xmlns="http://www.w3.org/2000/svg" xmlns:xlink="http://www.w3.org/1999/xlink" x="0px" y="0px"
	 viewBox="0 0 151.4 88.7" style="enable-background:new 0 0 151.4 88.7;" xml:space="preserve">
<style type="text/css">
	.st0{opacity:0.8;}
	.st1{fill:#B3B3B3;}
	.st2{fill:#6C3DB5;}
	.st3{fill:#CA2D2A;}
	.st4{fill:#D5322F;}
	.st5{fill:#E03A31;}
	.st6{fill:url(#SVGID_1_);}
	.st7{fill:#FFCD00;}
	.st8{fill:#E55528;}
	.st9{fill:#FFFFFF;}
</style>
<g class="st0">
	<path class="st1" d="M4.6,3c0,0-8.9,24.1,0.6,48.1c0,0,29.3-4.9,43.1-9.5c0,0,2.5-2-0.6,12.2c0,0,12.7-11.1,9.3-22.3
		c0,0-6.7-19.2-48.9-29.5C6.8,1.5,5.4,1.9,4.6,3z"/>
	<path class="st1" d="M0.9,26.5l1-11.3c0,0,16-8.5,23.1-7.6l9.6,3.7c0,0-6.6-0.4-8.1,5.7c0,0-9.9,0.6-14.8,4
		C11.6,20.9,0.9,25.7,0.9,26.5z"/>
	<path class="st1" d="M1.8,15.2l0.6-3.6c0,0,9.1-6.6,14.3-7.4l8.1,2.8C24.8,7.1,9.5,9.5,1.8,15.2z"/>
	<path class="st1" d="M0.9,26.5c0-3.6,0.2-7.2,0.8-10.7c0-0.2,0.1-0.4,0.1-0.6c0,0,10.8-6.5,23-8.1c3.3,1.2,6.6,2.7,9.7,4.2
		c0,0-7,0.4-8.1,5.7"/>
	<path class="st1" d="M0.9,26.5c0,0,16.7-10.7,26.4-9.4c4.6,0.9,8.2,4.6,9.1,9.2c0,0,1.9,5.6-2.6,19.2L5.2,51.2
		C5.2,51.2-0.3,34.5,0.9,26.5z"/>
	<path class="st1" d="M0.9,26.5c0,0-1.6,10.1,4.4,24.6c0,0,13-2.1,28.5-5.6L26.4,17C26.4,17,16.2,16,0.9,26.5z"/>
	<path class="st1" d="M2.4,11.6c0,0,1.4-6.8,2.2-8.6c0.6-0.9,1.7-1.4,2.8-1.2c0,0,5.1,1.1,9.2,2.5L2.4,11.6z"/>
	<path class="st1" d="M16.6,4.2c0,0,6.6,2.2,8.1,2.8c0,0-8.4,0.5-23,8.4l0.6-3.8C2.4,11.6,11.9,4.7,16.6,4.2z"/>
	<path class="st1" d="M34.5,11.3c0,0,3,1.6,6.7,4l-7-3.9L34.5,11.3z"/>
</g>
<path class="st2" d="M4.4,1.3c0,0-9.3,23.7,0,47.6c0,0,30.1-4.6,44.3-9.1c0,0,2.5-2-0.7,12.2c0,0,13.2-11.1,9.7-22.4
	c0,0-6.9-19.1-49.8-29.4C6.6-0.2,5.2,0.3,4.4,1.3z"/>
<path class="st3" d="M0.2,24.4l1.1-11.2c0,0,16.3-8.3,23.5-7.4l9.7,3.7c0,0-6.8-0.4-8.3,5.6c0,0-10.1,0.6-15.1,3.9
	C11.2,18.9,0.3,23.5,0.2,24.4z"/>
<path class="st4" d="M1.4,13.2L2,9.7c0,0,9.3-6.4,14.5-7.2l8.2,2.8C24.7,5.3,9.2,7.7,1.4,13.2z"/>
<path class="st5" d="M0.2,24.4c0-3.5,0.4-7.1,1-10.6c0-0.2,0.1-0.4,0.1-0.6c0,0,11-6.4,23.3-8c3.4,1.2,6.7,2.6,9.9,4.2
	c0,0-7.2,0.4-8.3,5.6"/>
<linearGradient id="SVGID_1_" gradientUnits="userSpaceOnUse" x1="-4.081628e-03" y1="-35.4678" x2="36.7564" y2="-35.4678" gradientTransform="matrix(1 0 0 1 0 67.42)">
	<stop  offset="0" style="stop-color:#00DA9E"/>
	<stop  offset="1" style="stop-color:#5D93A3"/>
</linearGradient>
<path class="st6" d="M36.4,24.4c-0.9-4.7-4.6-8.3-9.2-9.2c-0.3,0-0.5-0.1-0.8-0.1v-0.1c0,0-10.5-1-26.1,9.3c0,0,0,0.1-0.1,0.5
	c-0.1,0.5-0.1,1-0.1,1.6c-0.2,3.6,0,11.8,4.3,22.4c0,0,13.3-2,29.2-5.3C38.3,30,36.4,24.4,36.4,24.4z"/>
<path class="st7" d="M2,9.7c0,0,1.5-6.7,2.4-8.4c0.6-1,1.7-1.4,2.8-1.3c0,0,5.1,1.1,9.3,2.5L2,9.7z"/>
<path class="st8" d="M16.5,2.5c0,0,6.7,2.1,8.2,2.8c0,0-8.6,0.5-23.4,8.2L2,9.7C2,9.7,11.7,3,16.5,2.5z"/>
<path class="st2" d="M34.6,9.5c0,0,3,1.6,6.9,3.9l-7.1-3.9L34.6,9.5z"/>
<polygon class="st9" points="5.1,59.2 5.1,64.3 13.8,64.3 2.9,81.5 21.7,81.5 21.7,76.4 12.4,76.4 23.2,59.2 "/>
<path class="st9" d="M42.8,74c-2.2,2.8-6.1,3.7-9.2,2c-1-0.6-1.8-1.4-2.4-2.4c-0.6-1-0.9-2.1-0.9-3.3c0-1.7,0.7-3.4,1.9-4.5
	c1.3-1.3,3-1.9,4.8-1.9c2.3-0.1,4.5,1,5.8,2.8l0.8,1.1l4.3-2.7l-0.7-1.2c-0.6-1.1-1.5-2.1-2.5-2.8c-1-0.8-2.2-1.4-3.4-1.8
	c-1.3-0.4-2.7-0.7-4.1-0.7c-2.2,0-4.3,0.5-6.2,1.5c-1.8,1-3.4,2.5-4.4,4.3c-1.1,1.8-1.6,3.9-1.6,6c0,3.1,1.2,6,3.4,8.2
	c2.3,2.2,5.4,3.4,8.6,3.3c2,0,4.1-0.4,5.9-1.3c1.7-0.8,3.2-2.1,4.3-3.7l0.8-1.2L43.6,73L42.8,74z"/>
<path class="st9" d="M88.6,58.7c-2.2-0.1-4.4,0.7-6.2,2v-1.5h-5.3v29.5h5.3v-8.6c0.4,0.3,0.9,0.6,1.4,0.8c4.3,2.1,9.5,1.2,12.9-2.3
	c2.2-2.2,3.3-5.2,3.3-8.3c0-3.1-1.1-6-3.3-8.2C94.5,59.9,91.6,58.6,88.6,58.7z M94.6,70.4c0,1.1-0.3,2.2-0.9,3.2
	c-0.5,1-1.3,1.8-2.3,2.4c-0.9,0.6-1.9,0.8-3,0.8c-1.1,0-2.2-0.3-3.1-0.8c-1-0.5-1.8-1.3-2.3-2.2c-0.5-1-0.8-2.1-0.8-3.3
	c-0.1-1.7,0.6-3.4,1.8-4.7c1.1-1.2,2.7-1.9,4.4-1.8c1.1,0,2.1,0.3,3.1,0.8c0.9,0.6,1.7,1.4,2.2,2.3C94.3,68.2,94.5,69.3,94.6,70.4
	L94.6,70.4z"/>
<path class="st9" d="M114.5,58.7c-1.7,0-3.4,0.4-4.9,1.2c-0.4,0.2-0.9,0.5-1.2,0.8v-1.5H103v29.5h5.3v-8.6c0.4,0.3,0.9,0.6,1.4,0.8
	c4.3,2.1,9.5,1.2,12.8-2.3c2.2-2.2,3.3-5.2,3.3-8.3c0-3.1-1.1-6-3.3-8.2C120.5,59.9,117.6,58.6,114.5,58.7z M120.5,70.4
	c0,1.1-0.3,2.2-0.9,3.2c-0.5,1-1.3,1.8-2.3,2.4c-0.9,0.6-1.9,0.8-3,0.8c-1.1,0-2.2-0.3-3.1-0.8c-0.9-0.5-1.7-1.3-2.2-2.2
	c-0.5-1-0.8-2.1-0.8-3.3c-0.1-1.7,0.6-3.4,1.8-4.7c1.1-1.2,2.7-1.8,4.3-1.8c1.1,0,2.1,0.3,3.1,0.8c0.9,0.6,1.7,1.4,2.2,2.3
	C120.2,68.2,120.5,69.3,120.5,70.4L120.5,70.4z"/>
<path class="st9" d="M146.1,59.2v1.5c-0.4-0.3-0.8-0.6-1.2-0.8c-1.5-0.8-3.3-1.2-5-1.2c-3,0-5.9,1.2-8,3.4c-2.2,2.2-3.4,5.1-3.3,8.2
	c-0.1,3.1,1.1,6.1,3.3,8.3c3.3,3.5,8.5,4.4,12.9,2.3c0.5-0.2,1-0.5,1.4-0.8v1.5h5.3V59.2H146.1z M133.9,70.4c0-1.1,0.3-2.3,0.9-3.2
	c0.5-1,1.3-1.8,2.2-2.3c0.9-0.5,2-0.8,3.1-0.8c1.7,0,3.2,0.6,4.4,1.8c1.2,1.2,1.9,2.9,1.8,4.7c0,1.1-0.3,2.3-0.8,3.3
	c-0.5,0.9-1.3,1.7-2.2,2.2c-1.9,1.1-4.3,1.1-6.1,0c-1-0.6-1.7-1.4-2.3-2.4C134.2,72.6,133.9,71.5,133.9,70.4z"/>
<path class="st9" d="M73.7,70.5c0.1-2.7-0.8-5.4-2.4-7.5c-2.1-2.8-5.5-4.4-9-4.3c-3.4-0.1-6.7,1.5-8.7,4.2C50,67.5,50.2,74,54,78.4
	c2.1,2.4,5.2,3.7,8.4,3.6c1.5,0,2.9-0.2,4.3-0.8c1.3-0.5,2.5-1.3,3.5-2.2c0.6-0.6,1.2-1.3,1.7-2l0.3-0.4l-4.8-2.4l-0.2,0.3
	c-0.2,0.3-0.4,0.5-0.7,0.8c-0.6,0.5-1.2,0.9-1.9,1.1c-0.8,0.3-1.5,0.4-2.3,0.4c-1.5,0-3-0.6-4.1-1.7c-0.8-0.8-1.4-1.9-1.6-3.1h17.1
	L73.7,70.5z M66.9,66.1c0.2,0.3,0.4,0.6,0.5,0.9H57.3c0.3-0.6,0.7-1.1,1.1-1.5l0,0c1.1-1,2.5-1.5,3.9-1.4c0.9,0,1.8,0.2,2.6,0.6
	C65.7,64.9,66.4,65.4,66.9,66.1z"/>
</svg>
